<svg width="46" height="46" viewBox="0 0 46 46" fill="none" xmlns="http://www.w3.org/2000/svg">
<rect x="0.638306" y="0.712036" width="45" height="45" rx="10" fill="white"/>
<path d="M13.1383 29.0454C13.1396 30.15 13.579 31.2091 14.3602 31.9902C15.1413 32.7713 16.2003 33.2107 17.305 33.212H28.9716C30.0763 33.2107 31.1353 32.7713 31.9165 31.9902C32.6976 31.2091 33.137 30.15 33.1383 29.0454V21.5454H13.1383V29.0454ZM27.305 25.2954C27.5522 25.2954 27.7939 25.3687 27.9994 25.506C28.205 25.6434 28.3652 25.8386 28.4598 26.067C28.5544 26.2954 28.5792 26.5468 28.531 26.7892C28.4827 27.0317 28.3637 27.2544 28.1889 27.4293C28.014 27.6041 27.7913 27.7231 27.5488 27.7714C27.3064 27.8196 27.055 27.7948 26.8266 27.7002C26.5982 27.6056 26.403 27.4454 26.2656 27.2398C26.1283 27.0343 26.055 26.7926 26.055 26.5454C26.055 26.2139 26.1867 25.8959 26.4211 25.6615C26.6555 25.4271 26.9735 25.2954 27.305 25.2954ZM23.1383 25.2954C23.3855 25.2954 23.6272 25.3687 23.8328 25.506C24.0383 25.6434 24.1985 25.8386 24.2932 26.067C24.3878 26.2954 24.4125 26.5468 24.3643 26.7892C24.3161 27.0317 24.197 27.2544 24.0222 27.4293C23.8474 27.6041 23.6246 27.7231 23.3822 27.7714C23.1397 27.8196 22.8884 27.7948 22.66 27.7002C22.4315 27.6056 22.2363 27.4454 22.099 27.2398C21.9616 27.0343 21.8883 26.7926 21.8883 26.5454C21.8883 26.2139 22.02 25.8959 22.2544 25.6615C22.4888 25.4271 22.8068 25.2954 23.1383 25.2954ZM18.9716 25.2954C19.2189 25.2954 19.4605 25.3687 19.6661 25.506C19.8717 25.6434 20.0319 25.8386 20.1265 26.067C20.2211 26.2954 20.2459 26.5468 20.1976 26.7892C20.1494 27.0317 20.0303 27.2544 19.8555 27.4293C19.6807 27.6041 19.458 27.7231 19.2155 27.7714C18.973 27.8196 18.7217 27.7948 18.4933 27.7002C18.2649 27.6056 18.0697 27.4454 17.9323 27.2398C17.795 27.0343 17.7216 26.7926 17.7216 26.5454C17.7216 26.2139 17.8533 25.8959 18.0878 25.6615C18.3222 25.4271 18.6401 25.2954 18.9716 25.2954Z" fill="#302EA7"/>
<path d="M28.9716 14.8787H28.1383V14.0454C28.1383 13.8244 28.0505 13.6124 27.8942 13.4561C27.7379 13.2998 27.526 13.212 27.305 13.212C27.084 13.212 26.872 13.2998 26.7157 13.4561C26.5594 13.6124 26.4716 13.8244 26.4716 14.0454V14.8787H19.805V14.0454C19.805 13.8244 19.7172 13.6124 19.5609 13.4561C19.4046 13.2998 19.1927 13.212 18.9716 13.212C18.7506 13.212 18.5387 13.2998 18.3824 13.4561C18.2261 13.6124 18.1383 13.8244 18.1383 14.0454V14.8787H17.305C16.2003 14.88 15.1413 15.3194 14.3602 16.1006C13.579 16.8817 13.1396 17.9407 13.1383 19.0454L13.1383 19.8787H33.1383V19.0454C33.137 17.9407 32.6976 16.8817 31.9165 16.1006C31.1353 15.3194 30.0763 14.88 28.9716 14.8787Z" fill="#302EA7"/>
</svg>
