<svg width="46" height="46" viewBox="0 0 46 46" fill="none" xmlns="http://www.w3.org/2000/svg">
<rect x="0.638306" y="0.712036" width="45" height="45" rx="10" fill="white"/>
<path d="M16.47 19.8237V15.8519C16.47 14.8516 16.9984 13.212 19.5316 13.212C19.8617 13.2155 20.1911 13.2416 20.5176 13.2904C21.032 13.44 21.484 13.7521 21.8061 14.18C22.1283 14.608 22.3032 15.1287 22.3048 15.6643V22.2701C22.8515 22.4113 23.4251 22.4113 23.9718 22.2701V15.6643C23.9734 15.1287 24.1483 14.608 24.4705 14.18C24.7926 13.7521 25.2447 13.44 25.759 13.2904C26.0855 13.2427 26.415 13.2177 26.745 13.2154C29.2782 13.212 29.8066 14.8516 29.8066 15.8519V19.8237C29.8046 20.5475 29.5679 21.2511 29.1321 21.829C28.6962 22.4068 28.0847 22.8278 27.3894 23.0287L24.5128 23.8514C23.6138 24.1076 22.6611 24.1076 21.7621 23.8514L18.8872 23.0287C18.1919 22.8278 17.5804 22.4068 17.1446 21.829C16.7087 21.2511 16.472 20.5475 16.47 19.8237ZM31.4737 16.5629V19.8237C31.4705 20.9097 31.115 21.9654 30.4608 22.8323C29.8066 23.6992 28.8888 24.3306 27.8453 24.6316L24.9704 25.4534C23.7735 25.7953 22.5048 25.7953 21.3078 25.4534L18.4305 24.6307C17.3873 24.3295 16.4699 23.6982 15.8159 22.8315C15.1618 21.9648 14.8064 20.9095 14.8029 19.8237V16.5629C14.2871 16.9479 13.868 17.4476 13.5786 18.0225C13.2893 18.5974 13.1377 19.2318 13.1358 19.8754V25.7102C13.1371 26.8151 13.5766 27.8744 14.358 28.6557C15.1393 29.437 16.1986 29.8765 17.3035 29.8779H22.3048V31.545H19.8041C19.5831 31.545 19.3711 31.6328 19.2147 31.7891C19.0584 31.9454 18.9706 32.1574 18.9706 32.3785C18.9706 32.5996 19.0584 32.8116 19.2147 32.9679C19.3711 33.1242 19.5831 33.212 19.8041 33.212H26.4725C26.6935 33.212 26.9056 33.1242 27.0619 32.9679C27.2182 32.8116 27.306 32.5996 27.306 32.3785C27.306 32.1574 27.2182 31.9454 27.0619 31.7891C26.9056 31.6328 26.6935 31.545 26.4725 31.545H23.9718V29.8779H28.9731C30.078 29.8765 31.1373 29.437 31.9186 28.6557C32.7 27.8744 33.1395 26.8151 33.1408 25.7102V19.8754C33.1389 19.2318 32.9873 18.5974 32.698 18.0225C32.4086 17.4476 31.9895 16.9479 31.4737 16.5629Z" fill="#302EA7"/>
</svg>
