<svg width="46" height="46" viewBox="0 0 46 46" fill="none" xmlns="http://www.w3.org/2000/svg">
<rect x="0.638306" y="0.712036" width="45" height="45" rx="10" fill="#FEFEFF"/>
<path d="M20.2731 31.9854V28.9277C20.2731 28.1471 20.9105 27.5143 21.6967 27.5143H24.5709C24.9485 27.5143 25.3106 27.6632 25.5776 27.9283C25.8446 28.1933 25.9946 28.5528 25.9946 28.9277V31.9854C25.9922 32.3099 26.1204 32.6219 26.3507 32.8522C26.581 33.0825 26.8944 33.212 27.2212 33.212H29.1821C30.0979 33.2144 30.9771 32.8549 31.6255 32.2128C32.2739 31.5708 32.6383 30.699 32.6383 29.7899V21.0789C32.6383 20.3445 32.3104 19.6479 31.7429 19.1767L25.0723 13.8879C23.912 12.9606 22.2494 12.9905 21.1237 13.959L14.6053 19.1767C14.011 19.634 13.6559 20.3327 13.6383 21.0789V29.781C13.6383 31.6759 15.1857 33.212 17.0945 33.212H19.0106C19.6895 33.212 20.2413 32.6683 20.2462 31.9943L20.2731 31.9854Z" fill="#302EA7"/>
</svg>
