<svg width="57" height="58" viewBox="0 0 57 58" fill="none" xmlns="http://www.w3.org/2000/svg">
<rect x="0.5" y="1.16235" width="56" height="56" rx="14.5" fill="#FEFEFF" stroke="#DBDBDB"/>
<path d="M18.3078 34.5014C19.9508 33.1125 20.893 31.0825 20.893 28.9319V25.9022C20.893 22.0782 23.7336 18.9126 27.4132 18.3823V17.2085C27.4132 16.6076 27.9001 16.1219 28.5001 16.1219C29.0998 16.1219 29.5867 16.6076 29.5867 17.2085V18.3823C33.2675 18.9126 36.1069 22.0782 36.1069 25.9022V28.9319C36.1069 31.0825 37.0491 33.1125 38.7021 34.51C39.1247 34.8719 39.3671 35.3979 39.3671 35.9542C39.3671 37.003 38.514 37.8561 37.4654 37.8561H19.5347C18.4859 37.8561 17.6328 37.003 17.6328 35.9542C17.6328 35.3979 17.8752 34.8719 18.3078 34.5014Z" fill="#302EA7"/>
<path d="M28.5001 42.2028C26.532 42.2028 24.8856 40.7998 24.5075 38.9427H32.4927C32.1144 40.7998 30.468 42.2028 28.5001 42.2028Z" fill="#302EA7"/>
</svg>
