<svg width="46" height="46" viewBox="0 0 46 46" fill="none" xmlns="http://www.w3.org/2000/svg">
<rect x="0.638306" y="0.712036" width="45" height="45" rx="10" fill="white"/>
<path d="M14.4774 28.212C15.1667 29.4084 16.6954 29.8194 17.8917 29.1301C17.8925 29.1296 17.8933 29.1291 17.8941 29.1287L18.2649 28.9145C18.9649 29.5134 19.7696 29.9779 20.6383 30.2845V30.712C20.6383 32.0927 21.7576 33.212 23.1383 33.212C24.519 33.212 25.6383 32.0927 25.6383 30.712V30.2845C26.5071 29.9774 27.3117 29.5124 28.0116 28.9129L28.3841 29.1279C29.5807 29.8182 31.1104 29.4078 31.8008 28.2112C32.4911 27.0146 32.0807 25.4848 30.8841 24.7945L30.5141 24.5812C30.6806 23.6749 30.6806 22.7458 30.5141 21.8395L30.8841 21.6262C32.0807 20.9358 32.4911 19.4061 31.8008 18.2095C31.1104 17.0129 29.5807 16.6025 28.3841 17.2928L28.0133 17.507C27.3126 16.9088 26.5074 16.4452 25.6383 16.1395V15.712C25.6383 14.3313 24.519 13.212 23.1383 13.212C21.7576 13.212 20.6383 14.3313 20.6383 15.712V16.1395C19.7694 16.4467 18.9648 16.9117 18.2649 17.5112L17.8924 17.2954C16.6958 16.605 15.1661 17.0154 14.4758 18.212C13.7854 19.4086 14.1958 20.9384 15.3924 21.6287L15.7624 21.842C15.5959 22.7483 15.5959 23.6774 15.7624 24.5837L15.3924 24.797C14.1991 25.4892 13.7901 27.0159 14.4774 28.212ZM23.1383 19.8787C24.9792 19.8787 26.4716 21.3711 26.4716 23.212C26.4716 25.053 24.9792 26.5454 23.1383 26.5454C21.2973 26.5454 19.8049 25.053 19.8049 23.212C19.8049 21.3711 21.2973 19.8787 23.1383 19.8787Z" fill="#302EA7"/>
</svg>
