<svg width="46" height="46" viewBox="0 0 46 46" fill="none" xmlns="http://www.w3.org/2000/svg">
<rect x="0.638306" y="0.712036" width="45" height="45" rx="10" fill="white"/>
<path d="M28.9146 23.0985H24.9321C23.9988 23.0985 23.2421 22.3418 23.2421 21.4085V17.415C23.2445 16.6272 22.8804 15.883 22.2569 15.4014C21.6661 14.9336 20.8914 14.7668 20.1604 14.9502C15.1923 16.1835 12.1645 21.2108 13.3978 26.179C14.2667 29.6793 17.0872 32.3578 20.6277 33.0449C25.4644 33.9707 30.1837 30.9635 31.3879 26.1886C31.572 25.4567 31.4055 24.6808 30.9375 24.0888C30.4504 23.4664 29.705 23.1015 28.9146 23.0985Z" fill="#302EA7"/>
<path d="M33.0871 19.2504C32.8942 18.5334 32.607 17.8451 32.2329 17.2038C31.1076 15.2733 29.2694 13.8618 27.1139 13.2729C26.9719 13.2346 26.6542 13.212 26.6542 13.212C26.5407 13.2121 26.0517 13.212 25.6647 13.5255C25.0959 13.9732 25.0065 14.4821 24.998 14.5218C24.9685 14.6464 24.9532 14.774 24.9524 14.902V18.8735C24.9524 20.2735 26.0874 21.4085 27.4874 21.4085H31.4749C32.0039 21.41 32.5018 21.1588 32.8151 20.7325C33.0467 20.4202 33.1658 20.0387 33.153 19.6501C33.1463 19.5147 33.1242 19.3806 33.0871 19.2504Z" fill="#302EA7"/>
</svg>
