<svg width="46" height="46" viewBox="0 0 46 46" fill="none" xmlns="http://www.w3.org/2000/svg">
<rect x="0.638306" y="0.712036" width="45" height="45" rx="10" fill="white"/>
<path d="M34.0358 20.025V30.4866C34.0358 30.7275 33.9401 30.9585 33.7698 31.1288C33.5995 31.2991 33.3685 31.3947 33.1277 31.3947C32.8868 31.3947 32.6558 31.2991 32.4855 31.1288C32.3152 30.9585 32.2196 30.7275 32.2196 30.4866V22.9964L25.4994 26.2075C24.7908 26.6257 23.9819 26.8436 23.1591 26.8378C22.2963 26.8391 21.4491 26.6072 20.7072 26.1666L14.0052 22.9764C13.4784 22.6931 13.037 22.274 12.7268 21.7625C12.4165 21.2511 12.2489 20.666 12.2411 20.0679C12.2333 19.4697 12.3857 18.8804 12.6825 18.3611C12.9793 17.8418 13.4096 17.4113 13.9289 17.1144C13.9534 17.0999 13.9798 17.0863 14.0052 17.0735L20.7771 13.8424C21.5082 13.4226 22.338 13.205 23.181 13.2122C24.0241 13.2194 24.85 13.451 25.5739 13.8833L32.2713 17.0735C32.7998 17.3659 33.2414 17.793 33.5514 18.3114C33.8613 18.8298 34.0284 19.421 34.0358 20.025ZM23.1582 28.6522C21.9964 28.6548 20.8544 28.3503 19.8481 27.7695L15.8732 25.8724V28.3244C15.8738 29.2938 16.1841 30.2377 16.759 31.0183C17.3339 31.7989 18.1433 32.3753 19.0689 32.6634C20.3915 33.0431 21.7624 33.2276 23.1383 33.211C24.5143 33.2264 25.8852 33.0407 27.2076 32.6598C28.1332 32.3717 28.9426 31.7953 29.5175 31.0147C30.0924 30.2341 30.4028 29.2902 30.4033 28.3207V25.877L26.3539 27.8113C25.3819 28.3697 24.2792 28.6605 23.1582 28.654V28.6522Z" fill="#302EA7"/>
</svg>
