<svg width="46" height="46" viewBox="0 0 46 46" fill="none" xmlns="http://www.w3.org/2000/svg">
<rect x="0.638306" y="0.712036" width="45" height="45" rx="10" fill="white"/>
<path d="M27.3049 13.212H19.8049V26.5454H31.4716V17.3787C31.4716 16.2736 31.0326 15.2138 30.2512 14.4324C29.4698 13.651 28.41 13.212 27.3049 13.212V13.212Z" fill="#302EA7"/>
<path d="M16.8008 26.5962C16.9667 26.5623 17.1356 26.5453 17.3049 26.5454H18.1383V13.2954C17.1971 13.4875 16.3513 13.9989 15.7438 14.743C15.1364 15.487 14.8047 16.4182 14.8049 17.3787V27.3995C15.3875 26.96 16.0762 26.6828 16.8008 26.5962Z" fill="#302EA7"/>
<path d="M31.4716 28.212H17.3049C16.6419 28.212 16.006 28.4754 15.5372 28.9443C15.0683 29.4131 14.8049 30.049 14.8049 30.712C14.8049 31.3751 15.0683 32.011 15.5372 32.4798C16.006 32.9486 16.6419 33.212 17.3049 33.212H27.3049C27.8521 33.212 28.3939 33.1043 28.8994 32.8949C29.405 32.6855 29.8643 32.3786 30.2512 31.9916C30.6381 31.6047 30.945 31.1454 31.1544 30.6399C31.3638 30.1344 31.4716 29.5925 31.4716 29.0454V28.212Z" fill="#302EA7"/>
</svg>
