<svg width="46" height="46" viewBox="0 0 46 46" fill="none" xmlns="http://www.w3.org/2000/svg">
<rect x="0.638306" y="0.712036" width="45" height="45" rx="10" fill="white"/>
<path d="M24.6443 29.8733L23.5357 30.9819C23.4815 31.0364 23.4171 31.0796 23.3461 31.1091C23.2752 31.1385 23.1991 31.1537 23.1223 31.1537C23.0455 31.1537 22.9695 31.1385 22.8985 31.1091C22.8276 31.0796 22.7632 31.0364 22.709 30.9819L21.5939 29.8733C21.5158 29.7992 21.46 29.7047 21.4328 29.6005C21.4056 29.4963 21.4082 29.3865 21.4401 29.2837L22.3181 25.8488C22.3457 25.7488 22.405 25.6605 22.487 25.597C22.569 25.5334 22.6694 25.4981 22.7731 25.4964H23.4524C23.5566 25.496 23.658 25.5305 23.7405 25.5943C23.8229 25.6582 23.8816 25.7478 23.9074 25.8488L24.7853 29.2837C24.8181 29.3855 24.8223 29.4943 24.7974 29.5983C24.7726 29.7022 24.7196 29.7974 24.6443 29.8733ZM26.7334 25.0542C26.4586 24.9587 26.2214 24.7779 26.0565 24.5381C25.8917 24.2983 25.8078 24.0121 25.817 23.7212C26.9064 23.1225 27.7655 22.1784 28.2593 21.0376C28.753 19.8968 28.8532 18.6242 28.5441 17.4202C28.235 16.2163 27.5342 15.1493 26.552 14.3874C25.5699 13.6255 24.3622 13.212 23.1191 13.212C21.8761 13.212 20.6684 13.6255 19.6862 14.3874C18.704 15.1493 18.0032 16.2163 17.6941 17.4202C17.385 18.6242 17.4853 19.8968 17.979 21.0376C18.4727 22.1784 19.3319 23.1225 20.4212 23.7212C20.4272 24.0089 20.3425 24.2912 20.1792 24.5282C20.0159 24.7651 19.7822 24.9446 19.5112 25.0414C16.5762 26.0731 14.3845 28.2456 14.3845 30.6487V31.9304C14.3843 32.2627 14.5132 32.582 14.7439 32.8211C14.9747 33.0603 15.2893 33.2004 15.6213 33.212H30.6105C30.9439 33.2122 31.2642 33.0824 31.5035 32.8503C31.7427 32.6182 31.8822 32.302 31.8922 31.9688V30.6871C31.8601 28.3032 29.6428 26.1116 26.7334 25.0542Z" fill="#302EA7"/>
</svg>
